<?xml version="1.0" encoding="UTF-8"?>
<svg xmlns="http://www.w3.org/2000/svg" xmlns:xlink="http://www.w3.org/1999/xlink" width="250pt" height="250pt" viewBox="0 0 250 250" version="1.1">
<g id="surface12608615">
<rect x="0" y="0" width="250" height="250" style="fill:rgb(100%,100%,100%);fill-opacity:1;stroke:none;"/>
<path style=" stroke:none;fill-rule:nonzero;fill:rgb(0%,0%,0%);fill-opacity:1;" d="M 49.0625 10 C 46.679688 10.449219 44.960938 12.558594 45 15 L 45 235 C 45 237.753906 47.246094 240 50 240 L 200 240 C 202.753906 240 205 237.753906 205 235 L 205 15 C 205 12.246094 202.753906 10 200 10 L 50 10 C 49.84375 10 49.6875 10 49.53125 10 C 49.375 10 49.21875 10 49.0625 10 Z M 55 20 L 195 20 L 195 230 L 55 230 Z M 115.625 50.46875 C 99.589844 50.878906 83.554688 52.539062 68.4375 57.65625 L 71.875 62.65625 C 84.667969 58.164062 99.765625 55.957031 115.78125 55.46875 C 121.855469 55.292969 128.164062 55.292969 134.21875 55.46875 C 150.234375 55.957031 165.332031 58.164062 178.125 62.65625 L 181.5625 57.65625 C 166.445312 52.539062 150.410156 50.878906 134.375 50.46875 C 128.164062 50.3125 121.816406 50.3125 115.625 50.46875 Z M 109.84375 61.25 C 99.121094 61.542969 84.414062 62.871094 74.53125 66.875 C 76.347656 70.332031 84.257812 75.3125 88.59375 76.40625 C 88.847656 69.609375 98.4375 68.125 107.65625 68.125 L 125 160.78125 L 142.34375 68.125 C 151.5625 68.125 161.152344 69.609375 161.40625 76.40625 C 165.761719 75.3125 173.652344 70.332031 175.46875 66.875 C 162.285156 61.542969 140.546875 60.898438 131.09375 61.25 L 125 69.0625 L 118.90625 61.25 C 116.542969 61.152344 113.417969 61.152344 109.84375 61.25 Z M 66.5625 185.3125 C 66.894531 186.71875 68.144531 187.988281 69.6875 188.59375 L 74.375 188.59375 L 74.53125 188.75 L 74.53125 201.40625 L 77.5 201.40625 L 77.5 188.75 L 77.65625 188.59375 L 82.5 188.59375 C 84.042969 187.988281 85.136719 186.71875 85.46875 185.3125 Z M 118.125 185.3125 L 118.125 194.84375 L 131.40625 194.84375 L 131.40625 198.125 L 121.09375 198.125 C 119.570312 198.75 118.4375 199.84375 118.125 201.25 L 118.125 201.40625 L 134.375 201.40625 L 134.375 191.71875 L 120.9375 191.71875 L 120.9375 188.59375 L 131.25 188.59375 C 132.792969 188.125 133.90625 186.71875 134.21875 185.3125 Z M 142.65625 185.3125 L 142.65625 201.25 L 155.78125 201.25 C 157.226562 200.585938 157.988281 199.453125 158.28125 198.125 L 145.46875 198.125 L 145.46875 185.3125 Z M 92.5 185.46875 C 92.8125 186.875 94.0625 187.96875 95.625 188.59375 L 106.71875 188.59375 C 108.28125 187.96875 109.355469 186.875 109.6875 185.46875 Z M 166.25 185.46875 C 166.5625 186.875 167.65625 187.96875 169.21875 188.59375 L 180.46875 188.59375 C 182.03125 187.96875 183.125 186.875 183.4375 185.46875 Z M 92.5 191.5625 C 92.8125 192.949219 94.0625 194.238281 95.625 194.84375 L 106.71875 194.84375 C 108.28125 194.238281 109.355469 192.949219 109.6875 191.5625 Z M 166.71875 191.5625 L 166.71875 201.25 L 169.6875 201.25 L 169.6875 194.84375 L 180.15625 194.84375 L 180.15625 201.25 L 182.96875 201.25 L 182.96875 191.5625 Z M 92.5 198.125 C 92.8125 199.53125 94.0625 200.625 95.625 201.25 L 106.71875 201.25 C 108.28125 200.625 109.355469 199.53125 109.6875 198.125 Z M 92.5 198.125 "/>
</g>
</svg>
